<svg id="Layer_1" data-name="Layer 1" xmlns="http://www.w3.org/2000/svg" viewBox="0 0 711 215.53"><defs><style>.cls-1{fill:#fff}.cls-2{fill:#8ba6c5}</style><linearGradient id="linear-gradient" x1="100.63" y1="102.59" x2="150.11" y2="172.67" gradientUnits="userSpaceOnUse"><stop offset="0" stop-color="#fff"/><stop offset=".02" stop-color="#fcfcfc"/><stop offset=".35" stop-color="#cac5cd"/><stop offset=".64" stop-color="#a59daa"/><stop offset=".86" stop-color="#8e8495"/><stop offset="1" stop-color="#867b8d"/></linearGradient></defs><path class="cls-1" d="M91.46 128.63L89.08 131a1.5 1.5 0 0 1-2.19 0l-22.14-22.14a1.5 1.5 0 0 1 0-2.19L86.9 84.52a1.49 1.49 0 0 1 2.19 0l2.38 2.38a1.5 1.5 0 0 1 0 2.19l-18.69 18.67 18.68 18.68a1.49 1.49 0 0 1 0 2.19zm28.09-50.71l-17.73 61.36a1.55 1.55 0 0 1-.74.93 1.33 1.33 0 0 1-1.12.12l-2.96-.82a1.54 1.54 0 0 1-.93-.74 1.42 1.42 0 0 1-.12-1.16l17.73-61.36a1.55 1.55 0 0 1 .74-.93 1.33 1.33 0 0 1 1.12-.12l2.95.81a1.55 1.55 0 0 1 .93.74 1.42 1.42 0 0 1 .13 1.17zm31.23 30.94L128.63 131a1.5 1.5 0 0 1-2.19 0l-2.38-2.38a1.49 1.49 0 0 1 0-2.19l18.68-18.68-18.67-18.66a1.5 1.5 0 0 1 0-2.19l2.38-2.38a1.49 1.49 0 0 1 2.19 0l22.15 22.15a1.5 1.5 0 0 1 0 2.19zM294.22 26.08v4.68a27.67 27.67 0 1 0 0 46v4.68h12.3V26.08zm-15.4 43a15.37 15.37 0 1 1 15.38-15.33 15.37 15.37 0 0 1-15.37 15.37z"/><path class="cls-2" d="M380.5 30.2l-8.69-8.69-23.32 23.32-23.32-23.32-8.69 8.69 23.32 23.32-23.32 23.32 8.69 8.7 23.32-23.32 23.32 23.32 8.69-8.7-23.31-23.32L380.5 30.2z"/><path class="cls-1" d="M439.34 59.57a27.54 27.54 0 1 0-.59 2.31h-13.46a15.31 15.31 0 0 1-27.2-2.31zm-27-21.19a15.36 15.36 0 0 1 13.89 8.89h-27.82a15.36 15.36 0 0 1 13.89-8.89zM283.15 110.47a192.94 192.94 0 0 1 26.11 2.67v6.31c-.11 0-16.26-1.07-26.11-1.07-13.37 0-18.19 6.1-18.19 32.1 0 17.55 4 31.88 18.19 31.88 11.23 0 26.11-.75 26.11-.75v6.31a188.54 188.54 0 0 1-26.11 2.35c-19.79 0-26.11-17-26.11-40-.04-25.04 4.82-39.8 26.11-39.8zM338 132.29c19.15 0 25 7.17 25 29.75 0 21.08-5.88 28.14-25 28.14s-25-7.81-25-28.14c0-23.22 6.42-29.75 25-29.75zm0 50c11.55 0 17.12-1.5 17.12-20.22 0-20.33-4.6-21.83-17.12-21.83-12 0-17.12 1.39-17.12 21.83.04 18.93 6.12 20.19 17.12 20.19zM391.43 132.29c5.56 0 16.9 1.39 24.39 2.78v5.78s-14.87-.64-24.39-.64c-6.42 0-10.81 1.18-10.81 21.4 0 16.37 3.1 20.65 10.81 20.65 9.84 0 25.14-1.18 25.14-1.18v6c-8.67 2.46-16.26 3-25.14 3.1-10.59 0-18.72-4.07-18.72-29s7.81-28.89 18.72-28.89zM449.11 132.29c19.15 0 25 7.17 25 29.75 0 21.08-5.88 28.14-25 28.14s-25-7.81-25-28.14c-.04-23.22 6.38-29.75 25-29.75zm0 50c11.56 0 17.12-1.5 17.12-20.22 0-20.33-4.6-21.83-17.12-21.83-12 0-17.12 1.39-17.12 21.83.01 18.93 6.1 20.19 17.12 20.19zM485.92 132.83h5.56l2.35 6.63c6.53-3.75 12.3-7.6 21-7.6 11.34 0 17.55 8.77 17.55 18.19v39.59h-7.92v-39.59c0-7.06-4.17-10.27-9.63-10.27-8.56 0-12.73 2.14-21 6.1v43.76h-7.92zM543.05 132.83H551v39.59c0 7.06 4.17 10.27 9.63 10.27 8.56 0 12.73-2.14 21-6.1v-43.76h7.92v56.81h-5.56l-2.42-6.64c-6.53 3.75-12.3 7.6-21 7.6-11.34 0-17.55-8.77-17.55-18.19zM598 134.65l10.59-1.93 1.93-15.83h6v15.83h16.58v7.92h-16.54v28.67c0 9.31 2.46 11.45 6.1 12.3 0 0 8.77 2.25 9.52 2.25v5.67h-9.42c-8.24 0-14.12-5.14-14.12-20.22v-28.67H598zM109.65 213.06c-44.25 0-80.26-34.32-80.26-76.51a75.61 75.61 0 0 1 15.26-45.78L29.64 83a7.8 7.8 0 0 1-3.38-10.36l.17-.31a7.87 7.87 0 0 1 2.47-2.67l.1-.06L131.75 3.72a7.75 7.75 0 0 1 10.63 2.16 7.63 7.63 0 0 1 1.32 4.05l2.88 61.29A97.4 97.4 0 0 1 176.35 99c8.59 12.35 13.4 25.65 13.55 37.45a72.92 72.92 0 0 1-21.49 52.4 82.92 82.92 0 0 1-58.76 24.21zM46 75.53l21.59 11.13-6.65 6.85a61.43 61.43 0 0 0-17.36 43c0 34.37 29.64 62.33 66.07 62.33a68.64 68.64 0 0 0 48.67-20 58.84 58.84 0 0 0 17.41-42.26c-.25-19.2-17.54-43.32-39.37-54.91l-3.57-1.9-2.73-58.18L88 48.58zm72 64.66L90.47 99.45 118 112.57v27.61z"/><path d="M139.68 75.47a68.74 68.74 0 0 0-29.85-8.3v1.71l.32 14.33.07 3 .33 14.33.38 16.54-33.74-17.49-17.12-8.83a58.81 58.81 0 0 1 11.51-10.4 65.13 65.13 0 0 1 9.81-5.57l-1.61-2.3a70.21 70.21 0 0 0-11.7 6.07 69.25 69.25 0 0 0-12.23 10 68.51 68.51 0 0 0-19.37 48c0 38.34 32.76 69.42 73.16 69.42s73.66-31.08 73.16-69.42c-.26-21.17-18.09-47.8-43.12-61.09z" fill="#824106"/><path d="M178.08 122.37c-5.36-15.62-20.09-33.51-38.28-44.14a64.12 64.12 0 0 0-29.94-9.34l.32 14.33.07 3 .33 14.33.38 16.54-33.77-17.5a46.5 46.5 0 0 1 12.29-10c.54-.32 1.1-.61 1.65-.9l-9.74-13.9a65.13 65.13 0 0 0-9.81 5.57 58.81 58.81 0 0 0-11.51 10.4 42.31 42.31 0 0 0-10.72 27.1c0 25.63 25.06 67.7 84.68 69.63 31.08 1 52.4-40.79 44.05-65.12z" fill="#fdfdfd"/><path class="cls-2" d="M68.08 78.56a69.25 69.25 0 0 0-12.23 10l-23-11.86a.67.67 0 0 1-.29-.89.74.74 0 0 1 .23-.26L46 67.14z"/><path d="M140.42 91.31A45 45 0 0 0 114.2 83c-1.35 0-2.69.06-4 .17l.07 3 .33 14.33.38 16.54-17.72-25.29-.21-.3-1.93-2.75c-.55.29-1.11.59-1.65.9a46.5 46.5 0 0 0-12.29 10 32.75 32.75 0 0 0-8.56 21.16c0 25.85 38.39 47.24 61.69 45.45 7.94-.61 17.87-2.82 24.85-10.9 1.26-1.46 7.19-9.73 7.19-24.24 0-12.88-7.78-29.83-21.93-39.76z" fill="url(#linear-gradient)"/><path d="M141.59 116.54l-31-16-17.54-9.08-1.93-2.75-9.73-13.92-1.61-2.3a70.2 70.2 0 0 0-11.7 6.07L46 67.14l38.22-24.53 51.39-32.94a.64.64 0 0 1 .89.17.6.6 0 0 1 .11.34l2.86 61 .2 4.31.13 2.75.61 13.09z" fill="#02101a"/><path class="cls-2" d="M142.32 132.14a.66.66 0 0 1-.64.69.75.75 0 0 1-.34-.08L111 117.05l-17.74-25.3-.21-.3 17.54 9.06 31 16z"/></svg>